:version 1.10
:name ASF
:units
  mass 1
  length 1
  angle deg
:documentation
  ASF file generated by Kaydara
:root
  axis xyz
  order  tx ty tz rx ry rz
  position 0 0 0
  orientation 0 0 0
:bonedata
  begin
    id 1
    name LeftUpLegDummy
    direction 1 -2.30186e-007 -8.31532e-007
    length 2.93387
    axis 0 0 0 xyz
  end
  begin
    id 2
    name LeftUpLeg
    direction -1.82929e-007 -1 -1.48925e-009
    length 17.3336
    axis -3.48766 0.00143442 -0.000521554 xyz
    dof rx ry rz
  end
  begin
    id 3
    name LeftLeg
    direction -1.82929e-007 -1 -5.23717e-011
    length 14.9995
    axis 3.68178 -0.00654042 -0.000282425 xyz
    dof rx ry rz
  end
  begin
    id 4
    name LeftFoot
    direction 8.31532e-007 -4.54534e-011 1
    length 6.74421
    axis 1.87234e-006 4.66016e-005 -5.96866e-006 xyz
    dof rx ry rz
  end
  begin
    id 5
    name LeftToes
    direction 0.00818058 -0.00485161 0.999955
    length 3.85048
    axis 1.06247e-005 4.65869e-005 -5.96999e-006 xyz
    dof rx ry rz
  end
  begin
    id 6
    name SpineDummy
    direction -5.8607e-008 0.943407 -0.331637
    length 5.93572
    axis 0 0 0 xyz
  end
  begin
    id 7
    name Spine
    direction -1.04988e-007 0.999988 0.00495137
    length 10.1015
    axis -0.001389 0.000121417 6.61666e-006 xyz
    dof rx ry rz
  end
  begin
    id 8
    name Spine1
    direction 0 0 0
    length 0
    axis -0.001389 0.00012144 6.56766e-006 xyz
    dof rx ry rz
  end
  begin
    id 9
    name RightShoulderDummy
    direction -0.98348 0.17941 -0.0240696
    length 3.59882
    axis -0.001389 0.00012144 6.56766e-006 xyz
  end
  begin
    id 10
    name RightShoulder
    direction -0.978693 0.204882 0.0135597
    length 2.70001
    axis 0.215806 0.000203631 -0.00679732 xyz
    dof rx ry rz
  end
  begin
    id 11
    name RightArm
    direction -1 3.85509e-006 8.31394e-007
    length 10.2459
    axis -23.2009 -0.134239 -0.964098 xyz
    dof rx ry rz
  end
  begin
    id 12
    name RightForeArm
    direction -1 3.85569e-006 8.3129e-007
    length 8.16799
    axis -9.92322 0.0658061 0.17887 xyz
    dof rx ry rz
  end
  begin
    id 13
    name RightHand
    direction -0.992843 -0.0414604 0.112003
    length 5.28593
    axis -0.00960638 0.00330669 -0.185225 xyz
    dof rx ry rz
  end
  begin
    id 14
    name LeftShoulder1Dummy
    direction 0.983523 0.179172 -0.0240748
    length 3.59866
    axis -0.001389 0.00012144 6.56766e-006 xyz
  end
  begin
    id 15
    name LeftShoulder1
    direction 0.978627 0.205195 0.0135605
    length 2.70019
    axis -0.001389 0.00012144 6.57583e-006 xyz
    dof rx ry rz
  end
  begin
    id 16
    name LeftArm
    direction 1 3.51895e-006 -8.60188e-007
    length 10.2459
    axis -23.1894 0.134785 0.967513 xyz
    dof rx ry rz
  end
  begin
    id 17
    name LeftForeArm
    direction 1 3.51921e-006 -7.32029e-007
    length 8.16799
    axis -9.91835 -0.0656957 -0.177789 xyz
    dof rx ry rz
  end
  begin
    id 18
    name LeftHand
    direction 0.992938 -0.0411636 0.11126
    length 5.32135
    axis -0.00960237 -0.00340661 0.185177 xyz
    dof rx ry rz
  end
  begin
    id 19
    name HEadDummy
    direction 1.01974e-006 0.999861 -0.016675
    length 2.99946
    axis -0.001389 0.00012144 6.56766e-006 xyz
  end
  begin
    id 20
    name HEad
    direction -0.0222689 0.980941 0.193023
    length 5.12695
    axis -0.001389 0.00012144 6.56766e-006 xyz
    dof rx ry rz
  end
  begin
    id 21
    name RightUpLegDummy
    direction -1 2.30186e-007 8.31532e-007
    length 2.93387
    axis 0 0 0 xyz
  end
  begin
    id 22
    name RightUpLeg
    direction -1.82966e-007 -1 1.56832e-007
    length 17.3336
    axis -3.4909 -0.000906625 0.00028951 xyz
    dof rx ry rz
  end
  begin
    id 23
    name RightLeg
    direction -1.82786e-007 -1 -1.80317e-007
    length 14.9995
    axis 3.68513 0.0193739 -0.131021 xyz
    dof rx ry rz
  end
  begin
    id 24
    name RightFoot
    direction 8.31721e-007 -4.63324e-011 1
    length 6.74421
    axis 4.81691e-005 -0.120479 -0.188785 xyz
    dof rx ry rz
  end
  begin
    id 25
    name RightToes
    direction 0.00124746 -0.014064 0.9999
    length 3.85082
    axis 0.000481921 0.542163 -0.142575 xyz
    dof rx ry rz
  end
:hierarchy
  begin
    root LeftUpLegDummy SpineDummy RightUpLegDummy
    LeftUpLegDummy LeftUpLeg
    LeftUpLeg LeftLeg
    LeftLeg LeftFoot
    LeftFoot LeftToes
    SpineDummy Spine
    Spine Spine1
    Spine1 RightShoulderDummy LeftShoulder1Dummy HEadDummy
    RightShoulderDummy RightShoulder
    RightShoulder RightArm
    RightArm RightForeArm
    RightForeArm RightHand
    LeftShoulder1Dummy LeftShoulder1
    LeftShoulder1 LeftArm
    LeftArm LeftForeArm
    LeftForeArm LeftHand
    HEadDummy HEad
    RightUpLegDummy RightUpLeg
    RightUpLeg RightLeg
    RightLeg RightFoot
    RightFoot RightToes
  end

:SAMPLES-PER-SECOND 30
:FULLY-SPECIFIED
:DEGREES
17
root  3.27436 33.8317 -7.35398 5.1421 11.0574 1.18256
LeftUpLeg  -7.13199 5.71358 6.20853
LeftLeg  12.1522 6.10403 0.905842
LeftFoot  2.33438 -0.00494396 0.228034
LeftToes  -23.0916 1.85109e-006 5.31342e-008
Spine  2.23827 1.27179 -0.798242
Spine1  3.98615 2.61877 -1.46263
RightShoulder  0.053201 2.5196 8.44919
RightArm  -7.2845 12.8125 68.21
RightForeArm  32.8877 58.043 16.4859
RightHand  0.667451 -14.2044 -4.98084
LeftShoulder1  0.0790973 -0.366976 -9.85724
LeftArm  -15.703 8.4838 -71.2771
LeftForeArm  34.4573 -13.9982 -2.51069
LeftHand  0.0313468 1.60415 1.87121
HEad  -17.4651 -15.3177 5.99229
RightUpLeg  -6.82513 -4.09666 -8.56698
RightLeg  8.18324 1.49875 0.119357
RightFoot  4.39532 0.00980973 0.191916
RightToes  -41.9235 -0.23015 -0.325728
18
root  3.25089 33.821 -7.32367 5.18374 11.1628 1.11363
LeftUpLeg  -7.23478 5.59144 6.32266
LeftLeg  12.3087 6.14085 0.928384
LeftFoot  2.2341 -0.00423026 0.216942
LeftToes  -23.1284 1.85109e-006 5.31342e-008
Spine  2.32294 1.35987 -0.720855
Spine1  4.14737 2.80097 -1.32059
RightShoulder  0.0608127 3.08693 9.32001
RightArm  -6.03182 9.22315 68.8013
RightForeArm  31.7323 49.8292 12.0843
RightHand  0.701895 -14.8489 -5.01022
LeftShoulder1  0.0763921 -0.233304 -10.0117
LeftArm  -15.543 8.46868 -71.4125
LeftForeArm  33.9733 -14.1311 -2.53592
LeftHand  0.0311264 1.69294 1.89079
HEad  -18.2099 -15.2136 5.76032
RightUpLeg  -6.91334 -4.19724 -8.45206
RightLeg  8.41335 1.50196 0.125681
RightFoot  4.20287 0.00948706 0.190196
RightToes  -41.8459 -0.23015 -0.32555
19
root  3.22321 33.8113 -7.29973 5.217 11.2877 1.02239
LeftUpLeg  -7.34794 5.46383 6.46914
LeftLeg  12.4605 6.14681 0.945901
LeftFoot  2.1585 -0.00388501 0.206216
LeftToes  -23.2171 1.85109e-006 5.31342e-008
Spine  2.42367 1.41447 -0.638566
Spine1  4.35647 2.89952 -1.15141
RightShoulder  0.0668946 3.56738 10.0301
RightArm  -5.84526 6.1575 69.7203
RightForeArm  31.0988 40.5869 8.69392
RightHand  0.669704 -14.6864 -4.82115
LeftShoulder1  0.073585 -0.142434 -10.0927
LeftArm  -15.4555 8.46336 -71.5207
LeftForeArm  33.7103 -14.2351 -2.55559
LeftHand  0.0305965 1.70162 1.81321
HEad  -19.092 -15.188 5.56957
RightUpLeg  -6.99779 -4.373 -8.30903
RightLeg  8.62197 1.55444 0.135723
RightFoot  4.02678 0.00896453 0.191025
RightToes  -41.7451 -0.23015 -0.325386
20
root  3.2059 33.804 -7.27617 5.27367 11.4158 0.91329
LeftUpLeg  -7.46422 5.37667 6.61228
LeftLeg  12.5674 6.13184 0.955282
LeftFoot  2.05448 -0.00463303 0.191388
LeftToes  -23.1641 1.85109e-006 5.31342e-008
Spine  2.49972 1.44387 -0.563558
Spine1  4.52994 2.94704 -0.991672
RightShoulder  0.0732386 4.30211 10.5668
RightArm  -8.36708 3.28858 70.8315
RightForeArm  31.829 30.4979 5.95531
RightHand  0.34097 -14.2809 -2.35023
LeftShoulder1  0.0710776 -0.103487 -10.1079
LeftArm  -15.3414 8.49346 -71.5362
LeftForeArm  33.5988 -14.2564 -2.55968
LeftHand  0.0305908 1.66438 1.78807
HEad  -19.8802 -15.162 5.53179
RightUpLeg  -7.09133 -4.57181 -8.15769
RightLeg  8.78715 1.61068 0.145259
RightFoot  3.93428 0.00845958 0.19106
RightToes  -41.8688 -0.23015 -0.325234
21
root  3.19722 33.7636 -7.23603 5.43137 11.7468 0.872797
LeftUpLeg  -7.94067 5.24581 6.6944
LeftLeg  13.2412 5.92776 0.994883
LeftFoot  1.66855 -0.00394647 0.14414
LeftToes  -23.2311 1.85109e-006 5.31342e-008
Spine  2.61528 1.59227 -0.482376
Spine1  4.6869 3.42943 -1.02498
RightShoulder  0.122555 4.98465 11.0238
RightArm  -12.7641 0.391741 71.88
RightForeArm  35.9879 21.3719 3.94527
RightHand  0.162063 -13.4836 -1.00039
LeftShoulder1  0.0692712 -0.0510069 -10.0713
LeftArm  -15.2996 8.3947 -71.552
LeftForeArm  33.6403 -14.2122 -2.55136
LeftHand  0.030165 1.65906 1.71429
HEad  -20.6669 -15.1518 5.47166
RightUpLeg  -7.49459 -4.697 -8.08813
RightLeg  9.62989 1.40984 0.148224
RightFoot  3.34852 0.00824076 0.18616
RightToes  -41.5133 -0.23015 -0.325093
22
root  3.19015 33.7058 -7.20317 5.59313 11.9376 0.862739
LeftUpLeg  -8.55128 5.24491 6.7356
LeftLeg  14.2432 5.76395 1.0711
LeftFoot  1.13723 -0.0017968 0.0709914
LeftToes  -23.4393 1.85109e-006 5.31342e-008
Spine  2.68121 1.64623 -0.390493
Spine1  4.75344 3.58609 -0.951889
RightShoulder  0.179555 5.66734 11.3922
RightArm  -20.8346 -2.96632 72.9857
RightForeArm  45.2626 15.5918 2.7994
RightHand  0.272916 -12.609 -2.09881
LeftShoulder1  0.0681398 -0.0527247 -10.1622
LeftArm  -15.4842 8.48795 -71.398
LeftForeArm  33.8718 -14.0805 -2.52655
LeftHand  0.0293514 1.69107 1.59628
HEad  -21.245 -15.0881 5.38662
RightUpLeg  -8.09305 -4.66285 -8.04868
RightLeg  10.7895 1.15361 0.145107
RightFoot  2.66533 0.00857791 0.172166
RightToes  -41.5498 -0.23015 -0.324963
23
root  3.18998 33.6686 -7.17477 5.76205 12.0978 0.885152
LeftUpLeg  -8.96194 5.10491 6.72437
LeftLeg  14.816 5.75911 1.12969
LeftFoot  0.79012 -0.000595997 0.0163903
LeftToes  -23.3039 1.85109e-006 5.31342e-008
Spine  2.64599 1.48583 -0.346755
Spine1  4.72205 3.16306 -0.791067
RightShoulder  0.212316 6.35909 11.5844
RightArm  -30.6715 -6.08932 73.7639
RightForeArm  54.0703 9.8547 1.7233
RightHand  0.71265 -11.8186 -6.50351
LeftShoulder1  0.0673556 -0.0737119 -10.0929
LeftArm  -15.8646 8.74467 -71.3029
LeftForeArm  34.3295 -13.7408 -2.46277
LeftHand  0.0308186 1.63765 1.80779
HEad  -21.7244 -15.043 5.42531
RightUpLeg  -8.5281 -4.64402 -8.05253
RightLeg  11.5665 0.950795 0.132856
RightFoot  2.21296 0.00923245 0.152813
RightToes  -41.5773 -0.23015 -0.324843
24
root  3.19277 33.6478 -7.17113 5.99184 11.5475 1.00048
LeftUpLeg  -9.17019 5.78221 6.5811
LeftLeg  15.0765 5.65028 1.13502
LeftFoot  0.634675 0.000109317 -0.0197462
LeftToes  -23.4304 1.85109e-006 5.31342e-008
Spine  2.53408 1.44005 -0.364114
Spine1  4.58337 2.91096 -0.671938
RightShoulder  0.227209 7.25632 12.066
RightArm  -42.9564 -9.60833 72.9119
RightForeArm  52.8128 6.16045 1.06438
RightHand  1.04037 -12.3994 -9.18054
LeftShoulder1  0.0668669 -0.0447335 -9.93182
LeftArm  -16.3677 9.08231 -71.2938
LeftForeArm  34.8434 -13.3992 -2.39876
LeftHand  0.0309073 1.76247 1.9012
HEad  -21.915 -14.8962 5.52183
RightUpLeg  -9.13775 -4.70157 -8.16347
RightLeg  12.1778 1.46581 0.220034
RightFoot  1.89593 0.00869997 0.151486
RightToes  -41.5929 -0.23015 -0.324731
25
root  3.2158 33.6652 -7.16394 6.0516 11.455 0.942262
LeftUpLeg  -8.91374 5.73937 6.58327
LeftLeg  14.4337 5.82848 1.10306
LeftFoot  0.939797 -0.00252822 0.00450696
LeftToes  -23.6374 1.85109e-006 5.31342e-008
Spine  2.49918 1.20586 -0.248049
Spine1  4.59544 2.31392 -0.325155
RightShoulder  0.200246 7.13857 12.0986
RightArm  -46.1975 -13.5482 71.9007
RightForeArm  38.2535 7.9595 1.40595
RightHand  1.38575 -16.9831 -8.88856
LeftShoulder1  0.0666222 0.16145 -10.0736
LeftArm  -17.0686 9.18158 -71.2806
LeftForeArm  35.3139 -12.9872 -2.32194
LeftHand  0.0314997 1.78052 2.00089
HEad  -22.2311 -14.5304 5.48832
RightUpLeg  -9.0211 -4.24317 -8.13267
RightLeg  11.7586 1.08121 0.154582
RightFoot  2.22313 0.00968288 0.126261
RightToes  -41.7863 -0.23015 -0.324627
26
root  3.24905 33.6763 -7.14047 6.09932 11.577 1.03649
LeftUpLeg  -8.9133 5.73401 6.45186
LeftLeg  14.4277 5.69413 1.07707
LeftFoot  0.889357 -0.00277985 -0.00687949
LeftToes  -23.3697 1.85109e-006 5.31342e-008
Spine  2.4676 0.877265 -0.130717
Spine1  4.59046 1.57564 -0.0279071
RightShoulder  0.16284 6.19417 11.8942
RightArm  -49.3866 -15.4055 70.7969
RightForeArm  37.9052 7.76299 1.37117
RightHand  1.70808 -18.3997 -10.1438
LeftShoulder1  0.0665702 0.220744 -10.2417
LeftArm  -17.3725 9.60165 -71.1559
LeftForeArm  35.2995 -12.9395 -2.31313
LeftHand  0.0319184 1.7931 2.06867
HEad  -22.324 -14.0067 5.16804
RightUpLeg  -8.77891 -3.80456 -8.2653
RightLeg  11.3453 0.502214 0.0688032
RightFoot  2.40869 0.0111877 0.0925906
RightToes  -41.9394 -0.23015 -0.324529
27
root  3.281 33.6822 -7.11303 6.13001 11.4963 1.08896
LeftUpLeg  -8.86757 6.08465 6.3693
LeftLeg  14.4363 5.40558 1.02342
LeftFoot  0.80365 -0.00260456 -0.0235142
LeftToes  -23.3451 1.85109e-006 5.31342e-008
Spine  2.42869 0.560239 -0.0388539
Spine1  4.55543 0.89208 0.176514
RightShoulder  0.143453 5.83077 11.7512
RightArm  -50.1666 -16.7329 69.1656
RightForeArm  42.1963 7.02046 1.23375
RightHand  1.57157 -17.255 -9.95682
LeftShoulder1  0.0666591 0.157095 -10.2069
LeftArm  -17.4656 10.2148 -71.0431
LeftForeArm  35.1789 -13.0892 -2.34095
LeftHand  0.0319169 1.7686 2.05383
HEad  -22.0719 -13.2628 4.93524
RightUpLeg  -8.7974 -4.25545 -8.37509
RightLeg  11.4343 1.05374 0.144649
RightFoot  2.31656 0.00970819 0.104943
RightToes  -41.8459 -0.23015 -0.324437
28
root  3.31787 33.6863 -7.09647 6.23387 11.2705 1.14892
LeftUpLeg  -8.88546 6.38253 6.24211
LeftLeg  14.4632 5.33925 1.01347
LeftFoot  0.723298 -0.00262306 -0.0358027
LeftToes  -23.2958 1.85109e-006 5.31342e-008
Spine  2.36096 0.314748 0.0267826
Spine1  4.44631 0.365319 0.316018
RightShoulder  0.1343 5.81481 11.7459
RightArm  -47.5414 -17.9269 67.3368
RightForeArm  47.2404 6.65263 1.16119
RightHand  1.35988 -15.4598 -9.61957
LeftShoulder1  0.0668376 -0.0416367 -10.2042
LeftArm  -17.0925 10.6974 -70.8396
LeftForeArm  35.1588 -13.1408 -2.35053
LeftHand  0.0315659 1.79139 2.0172
HEad  -21.5055 -12.6591 4.74064
RightUpLeg  -8.90735 -4.1011 -8.49168
RightLeg  11.4467 1.09632 0.150684
RightFoot  2.33302 0.00933009 0.0999128
RightToes  -41.864 -0.23015 -0.32435
29
root  3.34851 33.6868 -7.07656 6.30033 10.9487 1.19117
LeftUpLeg  -8.8703 6.56497 6.13903
LeftLeg  14.5499 5.48214 1.04912
LeftFoot  0.598028 -0.00241966 -0.0502575
LeftToes  -23.1637 1.85109e-006 5.31342e-008
Spine  2.33202 0.171136 0.0886088
Spine1  4.39892 0.0479091 0.448013
RightShoulder  0.127207 5.66018 11.698
RightArm  -44.9984 -18.4092 65.7245
RightForeArm  51.9318 6.07389 1.05062
RightHand  1.40288 -14.2857 -10.785
LeftShoulder1  0.0670542 -0.208631 -10.131
LeftArm  -16.7293 10.7559 -70.816
LeftForeArm  35.3888 -12.96 -2.31684
LeftHand  0.0312908 1.76461 1.96029
HEad  -20.9292 -12.3765 4.4911
RightUpLeg  -8.9362 -3.62855 -8.57927
RightLeg  11.3243 0.922577 0.125008
RightFoot  2.42932 0.00929215 0.089351
RightToes  -41.9835 -0.23015 -0.324266
